<svg height="479pt" viewBox="0 -4 479.73831 479" width="479pt" xmlns="http://www.w3.org/2000/svg"><path d="m463.738281 408.371094c0 30.929687-25.070312 56-56 56-30.929687 0-56-25.070313-56-56 0-30.925782 25.070313-56 56-56 30.929688 0 56 25.074218 56 56zm0 0" fill="#9bc9ff"/><path d="m196.699219 131.171875c9.128906-18.472656 29.027343-29.058594 49.445312-26.304687 20.421875 2.753906 36.804688 18.234374 40.714844 38.464843 6.878906-6.808593 17.179687-8.816406 26.113281-5.09375 8.933594 3.726563 14.757813 12.453125 14.765625 22.132813 13.253907 0 24 10.746094 24 24s-10.746093 24-24 24h-176c-13.253906 0-24-10.746094-24-24s10.746094-24 24-24c-.015625-10.738282 5.363281-20.765625 14.316407-26.691406 8.953124-5.925782 20.285156-6.957032 30.164062-2.746094zm0 0" fill="#9bc9ff"/><path d="m295.738281 408.371094c0 30.929687-25.070312 56-56 56-30.929687 0-56-25.070313-56-56 0-30.925782 25.070313-56 56-56 30.929688 0 56 25.074218 56 56zm0 0" fill="#9bc9ff"/><path d="m127.738281 408.371094c0 30.929687-25.070312 56-56 56-30.929687 0-56-25.070313-56-56 0-30.925782 25.070313-56 56-56 30.929688 0 56 25.074218 56 56zm0 0" fill="#9bc9ff"/><g fill="#4f9af5"><path d="m415.738281 344.921875v-32.550781c0-4.417969-3.582031-8-8-8h-160v-32h144c48.601563 0 88-39.398438 88-88 0-48.601563-39.398437-88-88-88h-.503906c-4.066406-31.980469-31.257813-55.964844-63.496094-56-1.902343 0-3.847656.105468-5.863281.296875-20.90625-27.003907-53.746094-42.011719-87.847656-40.144531-34.097656 1.867187-65.105469 20.371093-82.9375 49.496093-20.1875-4.386719-41.289063.105469-57.933594 12.34375-16.648438 12.234375-27.234375 31.03125-29.074219 51.609375-40.214843 8.164063-67.730469 45.433594-63.695312 86.269532 4.039062 40.835937 38.316406 71.996093 79.351562 72.128906h152v32h-160c-4.417969 0-8 3.582031-8 8v32.550781c-33.523437 4.226563-57.992187 33.785156-55.875 67.507813 2.117188 33.722656 30.085938 59.992187 63.875 59.992187 33.789063 0 61.757813-26.269531 63.875-59.992187 2.117188-33.722657-22.351562-63.28125-55.875-67.507813v-24.550781h152v24.550781c-33.523437 4.226563-57.992187 33.785156-55.875 67.507813 2.117188 33.722656 30.085938 59.992187 63.875 59.992187 33.789063 0 61.757813-26.269531 63.875-59.992187 2.117188-33.722657-22.351562-63.28125-55.875-67.507813v-24.550781h152v24.550781c-33.523437 4.226563-57.992187 33.785156-55.875 67.507813 2.117188 33.722656 30.085938 59.992187 63.875 59.992187 33.789063 0 61.757813-26.269531 63.875-59.992187 2.117188-33.722657-22.351562-63.28125-55.875-67.507813zm-400-152.550781c-.054687-32.613282 24.476563-60.023438 56.894531-63.574219 4.125-.667969 7.144532-4.246094 7.105469-8.425781 0-17.832032 8.496094-34.597656 22.871094-45.144532 14.378906-10.550781 32.917969-13.621093 49.929687-8.269531 3.675782 1.160157 7.660157-.46875 9.472657-3.875 14.335937-27.050781 41.710937-44.699219 72.269531-46.585937 30.558594-1.886719 59.898438 12.257812 77.457031 37.339844 1.785157 2.5 4.835938 3.773437 7.871094 3.289062 13.957031-2.503906 28.300781 1.328125 39.148437 10.457031 10.84375 9.132813 17.066407 22.613281 16.980469 36.789063-.128906 2.335937.765625 4.609375 2.457031 6.222656 1.695313 1.605469 4 2.402344 6.328126 2.1875 26.535156-2.835938 52.464843 9.246094 67.367187 31.382812 14.90625 22.140626 16.339844 50.707032 3.730469 74.226563-12.609375 23.523437-37.195313 38.140625-63.882813 37.980469h-312c-35.328125-.039063-63.960937-28.667969-64-64zm104 216c0 26.511718-21.492187 48-48 48-26.507812 0-48-21.488282-48-48 0-26.507813 21.492188-48 48-48 26.5.027344 47.972657 21.5 48 48zm168 0c0 26.511718-21.492187 48-48 48-26.507812 0-48-21.488282-48-48 0-26.507813 21.492188-48 48-48 26.5.027344 47.972657 21.5 48 48zm120 48c-26.507812 0-48-21.488282-48-48 0-26.507813 21.492188-48 48-48 26.507813 0 48 21.492187 48 48-.027343 26.5-21.5 47.972656-48 48zm0 0"/><path d="m334.9375 153.171875c-2.101562-9.195313-8.15625-16.996094-16.542969-21.3125-8.386719-4.320313-18.253906-4.714844-26.960937-1.085937-7.945313-19.097657-25.78125-32.253907-46.375-34.207032-20.589844-1.953125-40.582032 7.613282-51.976563 24.878906-3.058593-.734374-6.195312-1.09375-9.34375-1.074218-19.324219.023437-35.878906 13.839844-39.359375 32.847656-15.824218 3.71875-26.347656 18.710938-24.46875 34.855469 1.882813 16.148437 15.570313 28.320312 31.828125 28.296875h176c16.304688.046875 30.039063-12.175782 31.882813-28.378906 1.847656-16.199219-8.785156-31.199219-24.683594-34.820313zm-7.199219 47.199219h-176c-7.398437.007812-13.835937-5.058594-15.570312-12.25s1.691406-14.636719 8.28125-18c6.589843-3.363282 14.625-1.773438 19.433593 3.851562l12.101563-10.449218c-4.03125-4.609376-9.308594-7.960938-15.199219-9.65625 1.84375-6.699219 6.527344-12.257813 12.820313-15.210938s13.558593-3.003906 19.894531-.140625h.101562c4.582032 2.070313 8.402344 5.515625 10.9375 9.855469l13.855469-8c-2.726562-4.613282-6.347656-8.636719-10.65625-11.824219 9.414063-12.714844 25.453125-18.664063 40.882813-15.160156 15.425781 3.503906 27.324218 15.800781 30.316406 31.335937.507812 2.519532.777344 5.082032.800781 7.648438-.003906 4.640625-.816406 9.242187-2.398437 13.601562l15.046875 5.453125c2.210937-6.109375 3.347656-12.554687 3.351562-19.054687 0-1.878906-.097656-3.765625-.28125-5.597656 2.484375-1.550782 5.351563-2.382813 8.28125-2.402344 6.332031.011718 12.0625 3.757812 14.617188 9.550781-4.992188 1.480469-9.539063 4.167969-13.242188 7.824219l11.3125 11.3125c5.121094-5.121094 13.042969-6.164063 19.316407-2.542969 6.269531 3.621094 9.328124 11.003906 7.453124 18-1.875 6.992187-8.214843 11.859375-15.457031 11.855469zm0 0"/><path d="m383.738281 384.371094h48v16h-48zm0 0"/><path d="m383.738281 416.371094h48v16h-48zm0 0"/><path d="m213.394531 394.714844-11.3125 11.3125 24 24c3.125 3.125 8.1875 3.125 11.3125 0l40-40-11.3125-11.3125-34.34375 34.34375zm0 0"/><path d="m53.394531 378.714844-11.3125 11.3125 18.34375 18.34375-18.34375 18.34375 11.3125 11.3125 18.34375-18.34375 18.34375 18.34375 11.3125-11.3125-18.34375-18.34375 18.34375-18.34375-11.3125-11.3125-18.34375 18.34375zm0 0"/></g></svg>