<svg height="512pt" viewBox="0 -80 512 512" width="512pt" xmlns="http://www.w3.org/2000/svg"><path d="m136 75.96875v11.03125c-13.761719-18-22.078125-21.273438-32-19.191406l16-32.480469c9.921875 10.640625 16 24.953125 16 40.640625zm0 0" fill="#5c9eff"/><path d="m120 35.328125-16 32.480469c-14.960938 3.121094-33.519531 18.71875-80 13.28125-2.558594-.320313-5.199219-.640625-8-1.121094v-4c0-33.128906 26.878906-59.921875 60-59.921875 17.441406 0 33.121094 7.441406 44 19.28125zm0 0" fill="#94c1ff"/><path d="m76 16.046875c-2.625 0-5.191406.210937-7.726562.546875-.378907.054688-.746094.125-1.121094.167969-2.449219.375-4.847656.855469-7.191406 1.511719 10.917968 3.023437 20.613281 8.972656 28.039062 17.054687 8.199219 8.792969 13.710938 20.121094 15.398438 32.625.195312-.050781.410156-.113281.601562-.152344l16-32.480469c-10.878906-11.832031-26.558594-19.273437-44-19.273437zm0 0" fill="#5c9eff"/><path d="m136 111.96875v.078125c0 22.3125-13.121094 41.59375-32 50.480469-7.28125 3.519531-15.359375 5.449218-24 5.449218s-16.71875-1.921874-24-5.449218c-18.878906-8.878906-32-28.167969-32-50.480469v-30.957031c46.480469 5.4375 65.039062-10.167969 80-13.28125 9.921875-2.082032 18.238281 1.191406 32 19.191406zm0 0" fill="#d7e9ff"/><path d="m104 67.808594v44.246094c0 22.3125-13.121094 41.59375-32 50.480468-2.558594 1.242188-5.246094 2.199219-8 3.03125 5.0625 1.523438 10.398438 2.417969 16 2.417969 8.640625 0 16.71875-1.921875 24-5.449219 18.878906-8.878906 32-28.167968 32-50.480468v-25.046876c-13.761719-18.007812-22.078125-21.28125-32-19.199218zm0 0" fill="#94c1ff"/><path d="m56 192.046875 8 7.921875 16-8 16 8 8-7.921875h24v-.078125c13.28125 0 24 10.71875 24 24v32.078125h-144v-32.078125c0-13.28125 10.71875-24 24-24v.078125zm0 0" fill="#fff"/><path d="m128 191.96875v.078125h-24l-1.0625 1.050781c9.863281 2.980469 17.0625 12.015625 17.0625 22.871094v32.078125h32v-32.078125c0-13.28125-10.71875-24-24-24zm0 0" fill="#d7e9ff"/><path d="m104 191.96875v.078125l-8 7.921875-16-8-16 8-8-7.921875v-29.527344c7.28125 3.519531 15.359375 5.449219 24 5.449219s16.71875-1.921875 24-5.449219zm0 0" fill="#fff"/><path d="m272 280.015625 16-16h24c22.078125 0 40 17.921875 40 40v32c0 4.410156-3.601562 8-8 8h-176c-4.398438 0-8-3.589844-8-8v-32c0-22.078125 17.921875-40 40-40h24l16 16 16-8zm0 0" fill="#94c1ff"/><path d="m312 264.015625h-24l-.734375.738281c18.597656 3.429688 32.734375 19.679688 32.734375 39.261719v32c0 4.410156-3.601562 8-8 8h32c4.398438 0 8-3.589844 8-8v-32c0-22.078125-17.921875-40-40-40zm0 0" fill="#5c9eff"/><path d="m288 232.574219v31.441406l-16 16-16-8-16 8-16-16v-31.441406c9.601562 4.808593 20.558594 7.441406 32 7.441406s22.398438-2.632813 32-7.441406zm0 0" fill="#fff"/><path d="m328 144.257812v23.839844c0 28.230469-16.320312 52.636719-40 64.476563-9.601562 4.808593-20.558594 7.441406-32 7.441406s-22.398438-2.632813-32-7.441406c-23.601562-11.757813-39.839844-36-40-64.160157v-24.15625l24-16.242187s24.078125 8 52 8 44-8 44-8zm0 0" fill="#d7e9ff"/><path d="m304 128.015625s-2.855469 1.367187-8 2.953125v37.136719c0 28.230469-16.320312 52.636719-40 64.480469-5 2.503906-10.382812 4.382812-16 5.636718 5.167969 1.152344 10.519531 1.792969 16 1.792969 11.441406 0 22.398438-2.632813 32-7.441406 23.679688-11.832031 40-36.238281 40-64.476563v-23.839844zm0 0" fill="#94c1ff"/><path d="m328 120.015625v24.242187l-24-16.242187s-16.078125 8-44 8-52-8-52-8l-24 16.242187v-24.242187c0-35.359375 28.640625-64 64-64h48v32c17.679688 0 32 14.320313 32 32zm0 0" fill="#94c1ff"/><path d="m296 88.015625v-32h-32v48c17.679688 0 32 6.320313 32 24v2.953125c5.144531-1.585938 8-2.953125 8-2.953125l24 16.242187v-24.242187c0-17.679687-14.320312-32-32-32zm0 0" fill="#5c9eff"/><path d="m504 216.015625v32.082031h-144v-32.082031c0-13.28125 10.71875-24 24-24v.082031h24v-.082031l24 16 24-16v.082031h24v-.082031c13.28125 0 24 10.71875 24 24zm0 0" fill="#94c1ff"/><path d="m480 192.015625v.082031h-24v-.082031l-1.503906 1c10.089844 2.832031 17.503906 11.984375 17.503906 23v32.082031h32v-32.082031c0-13.28125-10.71875-24-24-24zm0 0" fill="#5c9eff"/><path d="m456 162.566406v29.449219l-24 16-24-16v-29.449219c7.28125 3.53125 15.359375 5.449219 24 5.449219s16.71875-1.917969 24-5.449219zm0 0" fill="#d7e9ff"/><path d="m440 88.015625c19.121094 0 36.320312 8.390625 48 21.671875v2.410156c0 22.308594-13.121094 41.589844-32 50.476563-7.28125 3.523437-15.359375 5.441406-24 5.441406s-16.71875-1.917969-24-5.449219c-18.878906-8.878906-32-28.167968-32-50.476562v-24.074219c13.28125 0 24-10.71875 24-24 0 13.28125 10.71875 24 24 24zm0 0" fill="#d7e9ff"/><path d="m456 90.113281v21.984375c0 22.308594-13.121094 41.589844-32 50.476563-2.558594 1.242187-5.246094 2.203125-8 3.035156 5.0625 1.519531 10.398438 2.40625 16 2.40625 8.640625 0 16.71875-1.917969 24-5.449219 18.878906-8.878906 32-28.167968 32-50.476562v-2.402344c-8.296875-9.441406-19.425781-16.328125-32-19.574219zm0 0" fill="#94c1ff"/><path d="m400 24.015625v40c0 13.28125-10.71875 24-24 24v-40c0-13.28125 10.71875-24 24-24zm0 0" fill="#5c9eff"/><path d="m504 72.015625v80c0-16.238281-6-31.046875-16-42.328125-11.679688-13.28125-28.878906-21.671875-48-21.671875h-16c-13.28125 0-24-10.71875-24-24v-40c10.960938-8.808594 24.878906-16 40-16 35.359375 0 64 28.640625 64 64zm0 0" fill="#94c1ff"/><path d="m440 8.015625c-5.167969 0-10.183594.886719-15.007812 2.34375 27.097656 7.457031 47.007812 32.183594 47.007812 61.65625v24.601563c6.023438 3.488281 11.449219 7.886718 16 13.070312 10 11.28125 16 26.089844 16 42.328125v-80c0-35.359375-28.640625-64-64-64zm0 0" fill="#5c9eff"/><g fill="#116fff"><path d="m24 120.03125c-4.425781 0-8-3.574219-8-8v-30.933594c0-4.425781 3.574219-8 8-8s8 3.574219 8 8v30.933594c0 4.425781-3.574219 8-8 8zm0 0"/><path d="m136 120.03125c-4.425781 0-8-3.574219-8-8v-36c0-4.421875 3.574219-8 8-8s8 3.578125 8 8v36c0 4.425781-3.574219 8-8 8zm0 0"/><path d="m136 84.03125c-4.425781 0-8-3.574219-8-8 0-28.671875-23.328125-52-52.007812-52-28.671876 0-51.992188 23.328125-51.992188 52 0 4.425781-3.574219 8-8 8s-8-3.574219-8-8c0-37.496094 30.503906-68 67.992188-68 37.503906 0 68.007812 30.503906 68.007812 68 0 4.425781-3.574219 8-8 8zm0 0"/><path d="m136.007812 95c-2.40625 0-4.785156-1.078125-6.359374-3.136719-15.449219-20.175781-19.65625-18.503906-35.3125-12.304687-15.023438 5.953125-37.726563 14.953125-79.582032 8.335937-4.363281-.6875-7.347656-4.78125-6.648437-9.152343.679687-4.359376 4.796875-7.359376 9.152343-6.644532 37.535157 5.925782 56.980469-1.792968 71.191407-7.417968 19.269531-7.640626 32.199219-10.902344 53.902343 17.449218 2.6875 3.503906 2.023438 8.527344-1.488281 11.214844-1.449219 1.121094-3.160156 1.65625-4.855469 1.65625zm0 0"/><path d="m103.992188 75.847656c-1.175782 0-2.382813-.261718-3.511719-.824218-3.96875-1.945313-5.601563-6.742188-3.65625-10.703126l16-32.578124c1.945312-3.972657 6.71875-5.597657 10.703125-3.652344 3.96875 1.941406 5.601562 6.742187 3.65625 10.703125l-16 32.574219c-1.390625 2.832031-4.238282 4.480468-7.191406 4.480468zm0 0"/><path d="m8 224c-4.425781 0-8-3.574219-8-8 0-17.648438 14.351562-32 32-32 4.425781 0 8 3.574219 8 8s-3.574219 8-8 8c-8.824219 0-16 7.175781-16 16 0 4.425781-3.574219 8-8 8zm0 0"/><path d="m56 200.046875h-24c-4.425781 0-8-3.574219-8-8 0-4.421875 3.574219-8 8-8h24c4.425781 0 8 3.578125 8 8 0 4.425781-3.574219 8-8 8zm0 0"/><path d="m8 256.03125c-4.425781 0-8-3.574219-8-8v-32.03125c0-4.425781 3.574219-8 8-8s8 3.574219 8 8v32.03125c0 4.425781-3.574219 8-8 8zm0 0"/><path d="m152 224c-4.425781 0-8-3.574219-8-8 0-8.824219-7.175781-16-16-16-4.425781 0-8-3.574219-8-8s3.574219-8 8-8c17.648438 0 32 14.351562 32 32 0 4.425781-3.574219 8-8 8zm0 0"/><path d="m128 200.046875h-24c-4.425781 0-8-3.574219-8-8 0-4.421875 3.574219-8 8-8h24c4.425781 0 8 3.578125 8 8 0 4.425781-3.574219 8-8 8zm0 0"/><path d="m152 256.03125c-4.425781 0-8-3.574219-8-8v-32.03125c0-4.425781 3.574219-8 8-8s8 3.574219 8 8v32.03125c0 4.425781-3.574219 8-8 8zm0 0"/><path d="m152 256.03125h-144c-4.425781 0-8-3.574219-8-8 0-4.421875 3.574219-8 8-8h144c4.425781 0 8 3.578125 8 8 0 4.425781-3.574219 8-8 8zm0 0"/><path d="m56 200.046875c-4.425781 0-8-3.574219-8-8v-29.472656c0-4.421875 3.574219-8 8-8s8 3.578125 8 8v29.472656c0 4.425781-3.574219 8-8 8zm0 0"/><path d="m104 200c-4.425781 0-8-3.574219-8-8v-29.425781c0-4.421875 3.574219-8 8-8s8 3.578125 8 8v29.425781c0 4.425781-3.574219 8-8 8zm0 0"/><path d="m80 175.96875c-35.289062 0-64-28.695312-64-63.96875 0-4.425781 3.574219-8 8-8s8 3.574219 8 8c0 26.457031 21.527344 47.96875 48 47.96875s48-21.511719 48-47.96875c0-4.425781 3.574219-8 8-8s8 3.574219 8 8c0 35.273438-28.710938 63.96875-64 63.96875zm0 0"/><path d="m64.007812 208c-2.9375 0-5.761718-1.617188-7.167968-4.425781-1.976563-3.949219-.375-8.757813 3.574218-10.734375l16-8c3.953126-1.960938 8.761719-.375 10.738282 3.574218 1.976562 3.953126.375 8.761719-3.578125 10.738282l-16 8c-1.140625.574218-2.367188.847656-3.566407.847656zm0 0"/><path d="m96 208c-2.046875 0-4.097656-.785156-5.65625-2.34375-3.128906-3.128906-3.128906-8.183594 0-11.3125l8-8c3.128906-3.128906 8.183594-3.128906 11.3125 0s3.128906 8.183594 0 11.3125l-8 8c-1.558594 1.558594-3.609375 2.34375-5.65625 2.34375zm0 0"/><path d="m64 208c-2.046875 0-4.097656-.785156-5.65625-2.34375l-8-8c-3.128906-3.128906-3.128906-8.183594 0-11.3125s8.183594-3.128906 11.3125 0l8 8c3.128906 3.128906 3.128906 8.183594 0 11.3125-1.558594 1.558594-3.609375 2.34375-5.65625 2.34375zm0 0"/><path d="m95.992188 208c-1.199219 0-2.425782-.273438-3.566407-.839844l-16-8c-3.953125-1.976562-5.554687-6.785156-3.578125-10.734375 1.984375-3.953125 6.792969-5.539062 10.738282-3.578125l16 8c3.949218 1.976563 5.550781 6.785156 3.574218 10.738282-1.40625 2.796874-4.230468 4.414062-7.167968 4.414062zm0 0"/><path d="m376 120.03125c-4.425781 0-8-3.574219-8-8v-64.03125c0-4.425781 3.574219-8 8-8s8 3.574219 8 8v64.03125c0 4.425781-3.574219 8-8 8zm0 0"/><path d="m488 120.03125c-4.425781 0-8-3.574219-8-8v-2.34375c0-4.421875 3.574219-8 8-8s8 3.578125 8 8v2.34375c0 4.425781-3.574219 8-8 8zm0 0"/><path d="m360 224c-4.425781 0-8-3.574219-8-8 0-17.648438 14.351562-32 32-32 4.425781 0 8 3.574219 8 8s-3.574219 8-8 8c-8.824219 0-16 7.175781-16 16 0 4.425781-3.574219 8-8 8zm0 0"/><path d="m408 200.046875h-24c-4.425781 0-8-3.574219-8-8 0-4.421875 3.574219-8 8-8h24c4.425781 0 8 3.578125 8 8 0 4.425781-3.574219 8-8 8zm0 0"/><path d="m360 256.03125c-4.425781 0-8-3.574219-8-8v-32.03125c0-4.425781 3.574219-8 8-8s8 3.574219 8 8v32.03125c0 4.425781-3.574219 8-8 8zm0 0"/><path d="m504 224c-4.425781 0-8-3.574219-8-8 0-8.824219-7.175781-16-16-16-4.425781 0-8-3.574219-8-8s3.574219-8 8-8c17.648438 0 32 14.351562 32 32 0 4.425781-3.574219 8-8 8zm0 0"/><path d="m480 200.046875h-24c-4.425781 0-8-3.574219-8-8 0-4.421875 3.574219-8 8-8h24c4.425781 0 8 3.578125 8 8 0 4.425781-3.574219 8-8 8zm0 0"/><path d="m504 256.03125c-4.425781 0-8-3.574219-8-8v-32.03125c0-4.425781 3.574219-8 8-8s8 3.574219 8 8v32.03125c0 4.425781-3.574219 8-8 8zm0 0"/><path d="m504 256.03125h-144c-4.425781 0-8-3.574219-8-8 0-4.421875 3.574219-8 8-8h144c4.425781 0 8 3.578125 8 8 0 4.425781-3.574219 8-8 8zm0 0"/><path d="m408 200.046875c-4.425781 0-8-3.574219-8-8v-29.472656c0-4.421875 3.574219-8 8-8s8 3.578125 8 8v29.472656c0 4.425781-3.574219 8-8 8zm0 0"/><path d="m456 200c-4.425781 0-8-3.574219-8-8v-29.425781c0-4.421875 3.574219-8 8-8s8 3.578125 8 8v29.425781c0 4.425781-3.574219 8-8 8zm0 0"/><path d="m432 175.96875c-35.289062 0-64-28.695312-64-63.96875 0-4.425781 3.574219-8 8-8s8 3.574219 8 8c0 26.457031 21.527344 47.96875 48 47.96875s48-21.511719 48-47.96875c0-4.425781 3.574219-8 8-8s8 3.574219 8 8c0 35.273438-28.710938 63.96875-64 63.96875zm0 0"/><path d="m431.992188 216c-1.519532 0-3.0625-.441406-4.433594-1.34375l-24-16c-3.679688-2.457031-4.671875-7.417969-2.214844-11.097656 2.441406-3.671875 7.398438-4.671875 11.097656-2.214844l24 16c3.679688 2.457031 4.671875 7.417969 2.214844 11.097656-1.535156 2.3125-4.082031 3.558594-6.664062 3.558594zm0 0"/><path d="m432.007812 216c-2.582031 0-5.128906-1.246094-6.664062-3.558594-2.457031-3.679687-1.464844-8.640625 2.214844-11.097656l24-16c3.679687-2.457031 8.648437-1.457031 11.097656 2.214844 2.457031 3.679687 1.464844 8.640625-2.214844 11.097656l-24 16c-1.371094.902344-2.914062 1.34375-4.433594 1.34375zm0 0"/><path d="m160 312.03125c-4.425781 0-8-3.574219-8-8 0-26.472656 21.527344-48 48-48 4.425781 0 8 3.578125 8 8 0 4.425781-3.574219 8-8 8-17.648438 0-32 14.351562-32 32 0 4.425781-3.574219 8-8 8zm0 0"/><path d="m224 272.03125h-24c-4.425781 0-8-3.574219-8-8 0-4.421875 3.574219-8 8-8h24c4.425781 0 8 3.578125 8 8 0 4.425781-3.574219 8-8 8zm0 0"/><path d="m160 344.03125c-4.425781 0-8-3.574219-8-8v-32c0-4.421875 3.574219-8 8-8s8 3.578125 8 8v32c0 4.425781-3.574219 8-8 8zm0 0"/><path d="m168 352.03125c-8.824219 0-16-7.175781-16-16 0-4.246094 3.34375-7.3125 7.585938-7.542969 4.503906-.136719 7.933593 3.328125 8.414062 7.535157 4.414062 0 8 3.585937 8 8 0 4.425781-3.574219 8.007812-8 8.007812zm0 0"/><path d="m352 312.03125c-4.425781 0-8-3.574219-8-8 0-17.648438-14.351562-32-32-32-4.425781 0-8-3.574219-8-8 0-4.421875 3.574219-8 8-8 26.472656 0 48 21.527344 48 48 0 4.425781-3.574219 8-8 8zm0 0"/><path d="m312 272.03125h-24c-4.425781 0-8-3.574219-8-8 0-4.421875 3.574219-8 8-8h24c4.425781 0 8 3.578125 8 8 0 4.425781-3.574219 8-8 8zm0 0"/><path d="m352 344.03125c-4.425781 0-8-3.574219-8-8v-32c0-4.421875 3.574219-8 8-8s8 3.578125 8 8v32c0 4.425781-3.574219 8-8 8zm0 0"/><path d="m344 352.03125c-4.425781 0-8-3.574219-8-8 0-4.421875 3.574219-8 8-8 0-4.421875 3.574219-8 8-8s8 3.578125 8 8c0 8.816406-7.175781 16-16 16zm0 0"/><path d="m344 352.03125h-176c-4.425781 0-8-3.574219-8-8 0-4.421875 3.574219-8 8-8h176c4.425781 0 8 3.578125 8 8 0 4.425781-3.574219 8-8 8zm0 0"/><path d="m224 272.03125c-4.425781 0-8-3.574219-8-8v-31.488281c0-4.421875 3.574219-8 8-8s8 3.578125 8 8v31.488281c0 4.425781-3.574219 8-8 8zm0 0"/><path d="m288 272.03125c-4.425781 0-8-3.574219-8-8v-31.488281c0-4.421875 3.574219-8 8-8s8 3.578125 8 8v31.488281c0 4.425781-3.574219 8-8 8zm0 0"/><path d="m255.992188 248.03125c-44.113282 0-79.992188-35.878906-79.992188-79.984375 0-4.421875 3.574219-8 8-8s8 3.578125 8 8c0 35.28125 28.703125 63.984375 63.992188 63.984375 35.296874 0 64.007812-28.703125 64.007812-63.984375 0-4.421875 3.574219-8 8-8s8 3.578125 8 8c0 44.105469-35.886719 79.984375-80.007812 79.984375zm0 0"/><path d="m184 176.441406c-4.425781 0-8-3.578125-8-8v-48.410156c0-4.421875 3.574219-8 8-8s8 3.578125 8 8v48.410156c0 4.414063-3.574219 8-8 8zm0 0"/><path d="m328 176.046875c-4.425781 0-8-3.574219-8-8v-48.015625c0-4.421875 3.574219-8 8-8s8 3.578125 8 8v48.015625c0 4.425781-3.574219 8-8 8zm0 0"/><path d="m328 128.03125c-4.425781 0-8-3.574219-8-8 0-13.230469-10.769531-24-24-24-4.425781 0-8-3.574219-8-8 0-4.421875 3.574219-8 8-8 22.054688 0 40 17.945312 40 40 0 4.425781-3.574219 8-8 8zm0 0"/><path d="m296 96.03125c-4.425781 0-8-3.574219-8-8v-32c0-4.421875 3.574219-8 8-8s8 3.578125 8 8v32c0 4.425781-3.574219 8-8 8zm0 0"/><path d="m296 64.03125h-48c-4.425781 0-8-3.574219-8-8 0-4.421875 3.574219-8 8-8h48c4.425781 0 8 3.578125 8 8 0 4.425781-3.574219 8-8 8zm0 0"/><path d="m184 128.03125c-4.425781 0-8-3.574219-8-8 0-39.703125 32.296875-72 72-72 4.425781 0 8 3.578125 8 8 0 4.425781-3.574219 8-8 8-30.871094 0-56 25.128906-56 56 0 4.425781-3.574219 8-8 8zm0 0"/><path d="m327.992188 152.230469c-1.535157 0-3.097657-.445313-4.472657-1.367188l-24-16.199219c-3.664062-2.480468-4.625-7.449218-2.160156-11.113281 2.480469-3.664062 7.441406-4.613281 11.113281-2.160156l24 16.203125c3.664063 2.476562 4.625 7.445312 2.160156 11.109375-1.542968 2.296875-4.074218 3.527344-6.640624 3.527344zm0 0"/><path d="m260 144.03125c-28.894531 0-53.496094-8.0625-54.519531-8.40625-4.183594-1.402344-6.457031-5.921875-5.074219-10.113281 1.394531-4.183594 5.90625-6.472657 10.113281-5.078125.234375.078125 23.265625 7.589844 49.488281 7.589844 25.425782 0 40.320313-7.101563 40.472657-7.175782 3.953125-1.910156 8.75-.296875 10.695312 3.65625 1.945313 3.953125.34375 8.71875-3.589843 10.6875-.746094.359375-18.097657 8.839844-47.585938 8.839844zm0 0"/><path d="m184.007812 152.230469c-2.566406 0-5.097656-1.230469-6.640624-3.519531-2.472657-3.664063-1.503907-8.632813 2.160156-11.109376l24-16.203124c3.679687-2.460938 8.632812-1.503907 11.113281 2.160156 2.472656 3.664062 1.503906 8.632812-2.160156 11.113281l-24 16.199219c-1.375.921875-2.9375 1.359375-4.472657 1.359375zm0 0"/><path d="m240 288.03125c-2.046875 0-4.097656-.785156-5.65625-2.34375l-16-16c-3.128906-3.128906-3.128906-8.183594 0-11.3125s8.183594-3.128906 11.3125 0l16 16c3.128906 3.128906 3.128906 8.183594 0 11.3125-1.558594 1.558594-3.609375 2.34375-5.65625 2.34375zm0 0"/><path d="m240.007812 288.03125c-2.9375 0-5.761718-1.617188-7.167968-4.421875-1.976563-3.953125-.375-8.761719 3.574218-10.738281l16-8c3.953126-1.960938 8.761719-.375 10.738282 3.578125 1.976562 3.949219.375 8.757812-3.578125 10.734375l-16 8c-1.140625.578125-2.367188.847656-3.566407.847656zm0 0"/><path d="m272 288.03125c-2.046875 0-4.097656-.785156-5.65625-2.34375-3.128906-3.128906-3.128906-8.183594 0-11.3125l16-16c3.128906-3.128906 8.183594-3.128906 11.3125 0s3.128906 8.183594 0 11.3125l-16 16c-1.558594 1.558594-3.609375 2.34375-5.65625 2.34375zm0 0"/><path d="m271.992188 288.03125c-1.199219 0-2.425782-.269531-3.566407-.839844l-16-8c-3.953125-1.976562-5.554687-6.785156-3.578125-10.734375 1.984375-3.953125 6.785156-5.535156 10.738282-3.578125l16 8c3.949218 1.976563 5.550781 6.785156 3.574218 10.738282-1.40625 2.796874-4.230468 4.414062-7.167968 4.414062zm0 0"/><path d="m504 80c-4.425781 0-8-3.574219-8-8 0-30.871094-25.128906-56-56-56-14.257812 0-26.894531 7.742188-34.992188 14.238281-3.457031 2.769531-8.480468 2.203125-11.246093-1.230469-2.769531-3.449218-2.210938-8.488281 1.230469-11.246093 14.480468-11.617188 30.039062-17.761719 45.007812-17.761719 39.703125 0 72 32.296875 72 72 0 4.425781-3.574219 8-8 8zm0 0"/><path d="m504 160c-4.425781 0-8-3.574219-8-8 0-30.871094-25.128906-56-56-56-4.425781 0-8-3.574219-8-8s3.574219-8 8-8c39.703125 0 72 32.296875 72 72 0 4.425781-3.574219 8-8 8zm0 0"/><path d="m376 96c-4.425781 0-8-3.574219-8-8s3.574219-8 8-8c8.824219 0 16-7.175781 16-16 0-4.425781 3.574219-8 8-8s8 3.574219 8 8c0 17.648438-14.351562 32-32 32zm0 0"/><path d="m376 56c-4.425781 0-8-3.574219-8-8 0-17.648438 14.351562-32 32-32 4.425781 0 8 3.574219 8 8s-3.574219 8-8 8c-8.824219 0-16 7.175781-16 16 0 4.425781-3.574219 8-8 8zm0 0"/><path d="m424 96c-17.648438 0-32-14.351562-32-32 0-4.425781 3.574219-8 8-8s8 3.574219 8 8c0 8.824219 7.175781 16 16 16 4.425781 0 8 3.574219 8 8s-3.574219 8-8 8zm0 0"/><path d="m400 72c-4.425781 0-8-3.574219-8-8v-40c0-4.425781 3.574219-8 8-8s8 3.574219 8 8v40c0 4.425781-3.574219 8-8 8zm0 0"/><path d="m504 160c-4.425781 0-8-3.574219-8-8v-80c0-4.425781 3.574219-8 8-8s8 3.574219 8 8v80c0 4.425781-3.574219 8-8 8zm0 0"/><path d="m440 96h-16c-4.425781 0-8-3.574219-8-8s3.574219-8 8-8h16c4.425781 0 8 3.574219 8 8s-3.574219 8-8 8zm0 0"/><path d="m16 88c-4.425781 0-8-3.574219-8-8v-3.96875c0-4.421875 3.574219-8 8-8s8 3.578125 8 8v3.96875c0 4.425781-3.574219 8-8 8zm0 0"/></g></svg>